<?xml version="1.0" standalone="no"?>
<!DOCTYPE svg PUBLIC "-//W3C//DTD SVG 20010904//EN"
 "http://www.w3.org/TR/2001/REC-SVG-20010904/DTD/svg10.dtd">
<svg version="1.0" xmlns="http://www.w3.org/2000/svg"
 width="620.000000pt" height="82.000000pt" viewBox="0 0 620.000000 82.000000"
 preserveAspectRatio="xMidYMid meet">

<g transform="translate(0.000000,82.000000) scale(0.100000,-0.100000)"
fill="#000000" stroke="none">
<path d="M5516 789 c-109 -26 -225 -121 -274 -227 -24 -50 -27 -69 -27 -162 0
-92 3 -112 26 -160 77 -163 263 -263 432 -232 270 50 419 331 300 565 -31 62
-102 138 -158 172 -83 48 -204 66 -299 44z m175 -154 c54 -19 115 -76 140
-130 25 -55 25 -147 -2 -205 -43 -95 -117 -144 -219 -144 -168 0 -278 159
-228 328 15 51 99 137 148 153 51 16 111 15 161 -2z"/>
<path d="M270 399 l0 -381 163 4 c146 3 167 6 207 27 91 47 130 106 130 196 0
68 -17 110 -60 152 -31 31 -32 34 -17 51 24 27 47 87 47 125 0 49 -45 131 -88
160 -55 38 -103 47 -249 47 l-133 0 0 -381z m274 230 c32 -15 50 -66 37 -102
-13 -33 -34 -44 -99 -53 l-52 -7 0 87 0 86 45 0 c24 0 55 -5 69 -11z m34 -306
c48 -30 50 -97 5 -133 -20 -15 -41 -20 -89 -20 l-64 0 0 90 0 91 63 -7 c34 -3
72 -13 85 -21z"/>
<path d="M890 400 l0 -380 225 0 225 0 0 75 0 75 -145 0 -145 0 0 80 0 80 125
0 125 0 0 75 0 75 -125 0 -125 0 0 75 0 75 140 0 140 0 0 75 0 75 -220 0 -220
0 0 -380z"/>
<path d="M1460 400 l0 -380 80 0 80 0 2 213 3 212 78 -138 78 -137 58 0 57 0
80 138 79 137 3 -212 2 -213 80 0 80 0 0 380 0 381 -77 -3 -77 -3 -110 -193
c-61 -105 -113 -192 -117 -192 -4 0 -57 88 -119 195 l-112 195 -74 0 -74 0 0
-380z"/>
<path d="M2632 768 c3 -7 61 -178 129 -381 l124 -367 94 2 94 3 128 378 128
377 -88 0 -87 0 -85 -260 c-46 -143 -86 -260 -89 -260 -3 0 -44 116 -91 258
l-85 257 -88 3 c-69 2 -87 0 -84 -10z"/>
<path d="M3400 400 l0 -380 80 0 80 0 0 380 0 380 -80 0 -80 0 0 -380z"/>
<path d="M3720 400 l0 -380 80 0 80 0 0 230 c0 127 3 230 8 230 4 -1 85 -104
181 -230 l174 -230 68 0 69 0 0 380 0 380 -80 0 -80 0 0 -230 c0 -126 -3 -230
-7 -230 -5 0 -86 104 -182 230 l-175 230 -68 0 -68 0 0 -380z"/>
<path d="M4530 400 l0 -380 118 0 c190 0 289 30 379 113 142 131 146 393 8
531 -87 87 -180 116 -372 116 l-133 0 0 -380z m326 202 c80 -41 114 -101 114
-199 0 -83 -24 -140 -73 -178 -41 -30 -114 -55 -164 -55 l-33 0 0 231 0 232
58 -6 c32 -2 76 -14 98 -25z"/>
<path d="M2330 380 l0 -70 140 0 140 0 0 70 0 70 -140 0 -140 0 0 -70z"/>
</g>
</svg>
