<svg xmlns="http://www.w3.org/2000/svg" xmlns:xlink="http://www.w3.org/1999/xlink" width="310" height="41" viewBox="0 0 310 41">
  <defs>
    <style>
      .cls-1 {
        fill: #7270e8;
        fill-rule: evenodd;
        filter: url(#filter);
        stroke: transparent;
        stroke-width: 0px;
      }
    </style>
    <filter id="filter" x="6.625" y="-0.313" width="299.687" height="42" filterUnits="userSpaceOnUse">
      <feFlood result="flood" flood-color="#7270e8"/>
      <feComposite result="composite" operator="in" in2="SourceGraphic"/>
      <feBlend result="blend" in2="SourceGraphic"/>
    </filter>
  </defs>
  <path id="BEM-VINDO" class="cls-1" d="M18.386,40.667a17.166,17.166,0,0,0,8.58-1.86,12.505,12.505,0,0,0,4.44-3.96,11.1,11.1,0,0,0,1.86-6.24,10.959,10.959,0,0,0-5.16-9.36,9.712,9.712,0,0,0,3.3-7.14,10.661,10.661,0,0,0-1.32-5.1,11.125,11.125,0,0,0-4.26-4.44q-3.3-1.92-9.24-1.92H6.626v40.02h11.76Zm-3.18-32.28h1.98a8.426,8.426,0,0,1,4.59.93,3.551,3.551,0,0,1,1.35,3.15,3.827,3.827,0,0,1-1.98,3.66,8.994,8.994,0,0,1-3.96.6h-1.98V8.387Zm0,15.36h2.34q3.719,0,5.22.9a3.856,3.856,0,0,1,1.92,3.66,3.972,3.972,0,0,1-2.16,3.72,9.918,9.918,0,0,1-4.44.72h-2.88v-9Zm23.519-23.1v40.02h24.06v-8.22H47.546v-7.92h13.08v-8.22H47.546v-7.5h14.7V0.647H38.726Zm38.58,40.02V18.527l8.04,14.16h6.36l8.1-14.16v22.14h8.88V0.647h-8.16l-12,20.94-12-20.94h-8.1v40.02h8.88Zm36.42-14.82h15.06v-7.86h-15.06v7.86Zm15.719-25.2,13.38,40.02h10.14l13.38-40.02h-9.36l-9.06,27.6-9.12-27.6h-9.36Zm40.2,0v40.02h8.88V0.647h-8.88Zm25.439,40.02v-24.3l18.48,24.3H221V0.647h-8.88v24.3l-18.48-24.3H186.2v40.02h8.88Zm33.6,0h9.84q9.36,0,15.24-4.8,6.78-5.459,6.78-15.24,0-8.46-5.28-13.8-6-6.179-16.74-6.18h-9.84v40.02ZM238.7,8.927a14.208,14.208,0,0,1,9.06,2.7q3.9,3.181,3.9,9.06a11.233,11.233,0,0,1-3.06,8.22q-3.48,3.541-9.9,3.54h-1.14V8.927h1.14Zm27.9,22.32a21.088,21.088,0,0,0,7.68,7.56,21.354,21.354,0,0,0,21.42,0,21.721,21.721,0,0,0,7.68-7.56,20.435,20.435,0,0,0,0-21.12,21.474,21.474,0,0,0-18.42-10.44,20.983,20.983,0,0,0-10.68,2.88,20.493,20.493,0,0,0-7.68,7.56,20.435,20.435,0,0,0,0,21.12h0Zm9.18-19.08a11.67,11.67,0,0,1,9.18-4.2,11.948,11.948,0,0,1,8.34,3.24,12.381,12.381,0,0,1,4.08,9.48,12.59,12.59,0,0,1-3.18,8.52,12.158,12.158,0,0,1-17.52.9,12.313,12.313,0,0,1-4.08-9.42,12.449,12.449,0,0,1,3.18-8.52h0Z"/>
</svg>
